<?xml version="1.0" standalone="no"?><!DOCTYPE svg PUBLIC "-//W3C//DTD SVG 1.1//EN" "http://www.w3.org/Graphics/SVG/1.1/DTD/svg11.dtd"><svg class="icon" width="200px" height="200.00px" viewBox="0 0 1024 1024" version="1.1" xmlns="http://www.w3.org/2000/svg"><path d="M558.173079 749.987684c4.01387 0 8.493746 2.741361 12.989777 8.319771 8.450252 10.487012 17.119217 22.984686 10.972901 36.604504-6.91678 15.31981-22.480156 19.717669-42.51471 21.497193-1.224044-1.733544-6.028261-5.537401-5.461597-8.21787 3.24092-15.348392 7.181472-30.614767 12.001844-45.549345 2.701595-8.375691 6.993826-12.654253 12.011785-12.654253z m48.009859-320.888386c16.223242 2.485368 27.600015 3.501884 38.581615 6.148801 8.430369 2.031789 10.17137 7.761805 4.712258 15.221638-8.906317 12.169606-20.428485 15.662791-33.844502 15.662791-5.219273 0-10.72685-0.529383-16.474264-1.28245 16.577407-7.499599 22.920066-17.683395 7.024893-35.75078z m179.53058-69.840092c0 6.014591 1.528502 10.523049 1.528501 13.530345 0 4.508458-1.528502 22.544776-1.528501 30.059287 0 22.547261-9.17598 31.56542-7.646236 55.615086 1.529744 12.025455-4.586747 40.583579-9.17598 51.104143-1.529744 1.503648-12.232983 49.604223-12.232983 51.106629l12.144753 7.523209c-2.27784 0-6.470656 3.132807-11.068588 7.059689l-12.34731 24.715745 2.006935-0.210013-13.673254 12.016755v18.035075c-1.528502 1.504891-6.115249 12.026697-6.115248 13.529103 0 3.006053 3.05576 1.504891 3.05576 6.014591 0 4.507215-3.05576 7.512026-4.586747 9.015673 1.530987 3.008538 13.762727 34.572716 13.762727 37.577527v6.014591l-4.586747 6.010863c3.058246 1.502405 7.646236 13.525374 7.646235 13.525374v18.037561l3.058246 4.512186-3.058246 13.526617 6.115249 13.525374h-4.586747l1.529744 7.519482-4.58799 1.49992c0 3.6945 5.124829 24.515673 0.26842 24.515673-1.074922 0-2.639461-1.019001-4.855167-3.470817v4.507215l6.116491 1.506134-9.17598 9.019401-6.115248 24.048424-7.644993 1.502405v6.013348l-7.646236-1.506133v4.513429h3.057003l-1.529744 9.015674H700.07891c-1.529744 9.019402-4.585505 12.025455-10.704481 16.535155-6.114006 6.013349-3.054518 0-7.64375 6.013349-2.038002 4.005171-0.679748 4.672492-2.262928 4.672492-0.792832 0-2.322577-0.16652-5.382065-0.16652-3.058246 10.521807-7.646236 16.535155-18.353203 19.541209l1.53223 9.020644-7.646236-4.509701c-3.058246 1.502405-6.117734 3.006053-6.117734 7.515754 0 3.006053 1.530987 4.509701 3.059489 9.015673l-7.646236-3.002325c-0.509501 1.501162-0.848753 1.835444-1.074922 1.835445-0.090716 0-0.164034-0.053435-0.221197-0.106871-0.058406-0.053435-0.1019-0.106871-0.13421-0.106871-0.098172 0-0.098172 0.480919-0.098172 2.88427 0 4.007656 4.758238 6.68067 2.945161 6.68067-0.907159 0-3.455905-0.668564-9.062895-2.170969-1.529744 6.012106-7.646236 13.529102-15.289986 13.529102v6.009621c-7.646236 0-13.76397 10.521807-16.822216 16.535155-3.058246 6.015834-12.232983 10.521807-13.761484 19.542451l-7.647478-1.503648-1.528502 15.029022c-22.938707 6.015834-10.704481 12.025455-35.167961 19.541209-2.687926 1.319731-6.947847 1.866512-11.822897 1.866511-11.770704 0-27.116611-3.187485-32.52353-6.376212-4.586747 1.503648 1.527259 1.503648-4.586747 1.503648 0 0-17.192535-13.519161-23.78746-18.117093 5.841858-10.053315 11.645193-20.32907 15.292471-31.222439 4.553195-13.607391 5.739958-28.290947 9.458069-42.223922 16.592319-62.191371 14.919666-63.678864 78.738953-77.119736 29.369597-6.184839 49.624106-33.962558 47.351237-63.847869-1.758398-23.123867-12.931371-42.031306-26.933936-59.638897-5.252826-6.604866-10.756674-13.010903-18.077326-21.831476 6.012106 0.751824 8.849154 0.704602 11.428966 1.493707 20.306702 6.207207 40.448126 12.989777 60.890281 18.70861 3.429808 0.959352 7.038563 1.649042 10.504409 1.649042 6.130161 0 11.812956-2.1573 15.267617-8.796962 6.040688-11.609155-4.565622-17.337929-12.075162-21.000119-23.766334-11.594243-47.645753-23.541409-72.649801-31.863664-23.378617-7.781688-33.860658-23.367433-35.589231-45.548102-1.412932-18.158101 0.612643-36.558525 0.239838-54.833439-0.141666-6.93542-1.164395-14.720836-4.535797-20.536598-2.950132-5.090034-7.147919-7.620139-11.186643-7.620139-4.345666 0-8.508658 2.930249-10.735548 8.752224-4.125711 10.786498-7.987974 23.100256-6.838491 34.216066 4.812916 46.574559-4.847711 65.539162-47.095244 84.532346-8.321013 3.740479-17.326745 5.94003-25.7596 9.461798-10.183797 4.251222-21.454942 7.529423-29.640502 14.345545-5.418103 4.514672-9.73643 15.278802-8.277519 21.865028 1.63413 7.377816 7.89353 11.23635 15.721197 11.23635 2.085224 0 4.283532-0.274633 6.534033-0.82887 16.402188-4.039966 32.964682-7.434979 49.455101-11.123266 4.138138-0.9258 7.986731-1.379379 11.503528-1.379379 17.892166 0 27.16259 11.752064 22.073798 32.846627-9.219474 38.221236-19.507656 76.540645-33.768699 113.106626-15.118495 38.768017-30.279242 77.119736-33.743845 118.721073h-4.228855l1.53223-9.019401c-4.590475-9.015674-7.646236-6.009621-10.705724-10.521807-3.058246-7.513268 1.528502-9.016916-6.117734-13.526617v-9.015674l-7.646236-4.5097c0-7.515754-4.585505-19.542451-12.23174-19.542451l-4.586747-21.041128h1.527259l-9.172252-6.015834-1.529744-10.519322c-7.646236 0-9.17598-15.03275-16.81973-21.042371 3.053275-13.529102-22.939949-31.564177-18.35196-40.583578-7.646236-6.013349-4.58799-9.019402-10.703238-15.029023-4.589233-4.513429-7.646236-9.019402-7.646236-18.038803l-9.175979-12.029182 3.058245-7.513269-6.115249 1.504891-7.647478-18.036318-7.646235-15.03275-7.646236-15.030265 4.589233-3.006053h-7.646236l-10.703239-25.553314c-10.701996-3.007296-21.40772-57.117492-30.581214-70.644109l-1.530987-15.031507-3.057003-4.509701v-22.544776c0-1.504891-4.589233-4.512186-6.116491-13.52786-1.529744-6.013349-3.060731-9.019402-3.060731-16.535155v-4.509701l1.530987-21.043613v-1.503648c0-3.00481-4.586747-9.019402-6.117734-10.520564l1.530987-12.024212c0-3.007296-1.530987-4.509701-1.530987-9.019401h3.057003c-1.526016-9.019402-4.586747-15.030265-4.586748-27.054477 0-7.515754 3.060731-7.515754 3.060732-16.535155H239.804855l4.586748-9.018159-3.057003-21.042371v-27.055719L236.74661 375.791876l6.118977-9.016917 3.05576-25.553314 7.647478-4.508458 4.586747-36.072635c4.585505-7.516996 6.117734-16.536398 10.704482-21.043614 9.172252-6.013349 13.761484-6.013349 13.761484-18.038803h7.646235l-6.115248-3.003568c0-9.019402 10.701996-10.523049 10.701996-22.549746v-4.508458c9.173494-1.501162 12.232983-12.024212 16.81973-15.03275 10.705724-6.010863 10.705724-3.003568 18.350717-13.526617l-1.528502-9.015674c1.528502 0 12.232983-12.024212 13.761484-13.529102 3.059488-4.508458 0-3.007296 6.116492-7.514511 2.251744-3.322937 2.85196-3.39377 4.230097-4.994348-0.525655 8.97715-0.838812 17.992824-0.039766 26.871802 2.938948 32.559567 7.036078 65.013507 10.191252 97.554434 2.905396 29.972299 22.747333 45.448687 47.833399 56.307262 1.082378 0.469735 2.438146 0.683476 3.878417 0.683476 2.842019 0 6.007135-0.833841 8.016555-2.183396 16.542611-11.117052 30.471858-24.127955 37.012105-44.278079 12.759881-39.304857 11.361861-79.44107 9.651928-119.737589-0.227411-5.369638-0.594003-10.733063-1.036399-18.612923 6.885713 4.843983 11.20404 7.7966 15.426681 10.875972 4.175419 3.049547 8.257636 6.22709 12.382105 9.34747-1.56951 0.82887-3.137777 1.660226-4.707287 2.490339-9.377295 70.988332 5.630602 133.272904 69.446161 176.751937-6.690611 11.713541-10.848633 17.151527-15.677703 17.151527-3.980317 0-8.4167-3.700713-15.09737-10.631163-2.387196-2.475427-6.791269-5.62066-9.397178-5.62066-0.325583 0-0.622585 0.048465-0.884791 0.154093-3.719354 1.498677-8.227812 6.397338-8.483805 10.124147-0.918344 13.338972-1.748457 27.022167 0.21747 40.154853 5.183236 34.649762 26.746291 58.563976 53.896454 79.055838 8.605588 6.49551 17.214904 8.557123 25.849073 8.557123 11.206526 0 22.457788-3.473302 33.799767-5.235428 3.818768-0.591518 7.584101-1.701235 11.419024-1.988295 24.709532-1.839173 39.575762-17.652328 45.392767-38.780444 5.482722-19.917742 5.773511-41.561571 5.835645-62.45482 0.016155-5.542371-8.995791-11.354405-14.534434-16.29656-0.031067-0.028582-0.080774-0.042251-0.147879-0.042252-1.113445 0-6.890684 3.776517-8.51363 6.648361-8.770865 15.524853-13.376252 21.126873-24.473421 21.126873-4.428926 0-9.893009-0.892247-17.067024-2.403351-7.454862-1.56951-18.617894-1.324701-17.451014-12.9351 0.994147-9.917862 2.853203-19.532509 18.004008-19.531266 0.269662 0 0.546781 0.002485 0.825142 0.008698 0.577848 0.012427 1.156939 0.019883 1.73603 0.019883 14.515794 0 29.386995-3.948008 43.455422-8.16692 4.411529-1.322216 9.149883-10.265814 8.881464-15.470175-0.193859-3.7964-8.055079-9.71779-13.009661-10.284454-14.57917-1.673896-29.503807-0.33801-44.106588-1.900064-5.669125-0.607673-14.315721-4.928485-15.417982-9.157339-1.629159-6.255672 2.261685-13.941673 4.532069-24.378978 7.508298 8.267578 11.15309 12.743726 15.277559 16.726529 5.441714 5.257797 11.2873 7.54185 17.253426 7.54185 5.322416 0 10.740519-1.816804 16.052994-4.960795 8.016555-4.744568 10.853603-11.298484 0.63874-17.612563-6.807424-4.206486-13.473182-8.636655-19.670447-12.623186 16.388519-18.602982 32.702476-35.706044 47.156135-54.250619 5.498877-7.055961 8.498717-17.293193 9.161068-26.332477 0.341738-4.686162-6.911809-13.976469-10.706967-13.976469h-0.009942c-5.730017 0.027339-14.700954 5.173294-16.589833 10.252145-9.50032 25.54213-31.185159 38.576644-51.710573 52.739515-0.366592 0.253508-0.933256 0.364106-1.627916 0.364106-3.571474 0-10.496953-2.93522-10.709452-4.651366-1.758398-14.299567-4.072276-29.10242-2.050429-43.148479 2.633248-18.279884-0.376533-34.188726-9.349956-49.85276-2.293995-4.006414-2.192095-9.378537-3.416138-15.196785 8.340896 2.716508 16.137496 7.330594 20.409844 7.330594 0.805259 0 1.485008-0.164034 2.020605-0.535597 5.575924-3.874689 10.669686-5.446685 15.54225-5.446685 7.32438 0 14.146716 3.552834 21.344343 8.176862 4.290988 2.756273 10.12539 3.012266 15.02778 4.973222 3.250862 1.298605 6.233304 3.416139 9.101418 5.488936 4.256193 3.078129 8.304858 6.440832 12.441754 9.680509 3.576445-4.647639 10.030946-9.174737 10.231019-13.964041 0.509501-12.14351 0.712058-24.334241 0.528141-36.513789l0.432454 0.393931c7.649964 7.515754 6.120219 4.509701 13.766455 9.016916l6.115248-1.501162c-1.529744 4.508458-3.059488 4.508458-3.059488 6.013348 0 7.513268 15.292471 19.538723 18.350717 27.054477 7.644993 13.52786 1.528502 16.53267 18.349474 25.552072v9.018158l4.586747 3.006053c0 13.529102 4.58799 12.022969 9.17598 19.539966 0 4.509701-1.529744 6.014591-1.529744 10.523049 0 3.006053 9.17598 13.52786 9.17598 31.564178 0 12.022969 9.174737 22.548504 3.057003 34.572716 7.646236 6.010863 6.117734 10.519321 6.117734 22.546018l3.058245 4.508458v12.024212c0 1.502405-3.058246 4.510943-3.058245 7.515754 0 1.503648 4.58799 3.00481 4.58799 12.024212zM463.52404 559.198387c-2.236831-1.491221-5.436743-2.209492-8.964723-2.209493-8.119698 0.001243-17.96797 3.803856-21.743245 10.738034-8.562094 15.728653-14.724565 32.752183-22.465244 50.518839 5.390764 8.048865 8.232782 16.931572 14.111922 19.962478 2.467971 1.271266 4.965766 1.892608 7.413853 1.892608 5.861741 0 11.433937-3.56029 15.604385-10.25463 7.341778-11.779403 16.487933-22.426721 24.257195-33.961315 5.167081-7.671089-0.659865-31.651165-8.214143-36.686521z m165.469609 6.500481c-3.143991-5.491421-9.906678-8.923715-15.017838-13.296721-4.257436 5.90275-9.76874 11.312154-12.353524 17.86607-1.890123 4.795518-1.555841 11.840295 0.625071 16.589834 6.156257 13.399863 12.977351 26.67173 21.242442 38.843821 2.548745 3.754149 9.525174 7.369117 14.179027 7.369117 0.717029 0 1.378137-0.085745 1.959713-0.269663 5.37958-1.699992 8.89389-9.253026 15.148319-16.528942-8.959753-17.853643-16.644512-34.624908-25.78321-50.573516z m6.321534-361.476937c-0.941955-0.770464-2.711537-1.123386-4.65261-1.123386-3.001082 0-6.408522 0.843783-7.786659 2.286538-7.620139 7.983003-3.188728 19.254148 9.774954 27.531668 11.45382-10.487012 12.80586-20.384991 2.664315-28.69482z m20.255751-85.707926c-1.145755-3.540407 1.637858-8.344624 2.702839-12.594604l5.558526-0.039766 5.615689 17.459713-4.200272 3.216066c-3.391285-2.627034-8.586947-4.674978-9.676782-8.041409z m-59.238753-32.527257c-2.741361-0.052193-5.392007-4.897418-8.08366-7.539365 0.827628-1.477551 1.654013-2.952618 2.479155-4.430169l39.693817 6.171169-1.216588 3.989016c-10.161428 0.678506-20.332798 1.831716-30.4818 1.831717-0.796561 0-1.594364-0.007456-2.390924-0.022368z m-3.060731 59.370478c-10.064499-13.251984-15.775875-23.994988-6.947847-36.184478 2.3611-3.260803 8.575763-3.750421 13.019602-5.511304 1.535958 4.063577 5.0279 8.564579 4.227611 12.102501-2.052914 9.085264-6.009621 17.743044-10.299366 29.593281z m-84.953617-8.511144l6.253187-38.592799 4.281047-1.967169c3.181271 4.305901 8.835484 8.478834 9.075322 12.941313 0.680991 12.687805-7.241121 21.493465-19.609556 27.618655z m46.583258-50.563576c-4.06482 0-8.468892-2.579812-12.70396-3.88463l0.744368-5.580895c6.983885-0.923314 13.969013-1.845386 20.951655-2.769943 0.753067 1.4353 1.503648 2.871843 2.254229 4.305901-3.347791 2.777399-6.456987 7.381544-10.10675 7.858734a8.92123 8.92123 0 0 1-1.139542 0.070833z m24.167722 378.294181c-0.237353 0.007456-0.47222 0.011184-0.707087 0.011185-12.675378 0-22.775915-10.076926-27.757836-31.456064l26.291468-4.121984 2.173455 35.566863zM542.581121 294.296649c-3.718111-0.552994-8.645354-5.825703-9.630802-9.758799-5.80085-23.182273-10.070712-46.747292-15.973462-69.898498-2.772428-10.878457-9.93526-20.8336-11.631524-31.744366-1.645314-10.577727 1.165638-21.845145 2.019362-32.808105l3.786458-3.69947c5.562254 10.095566 10.856089 13.582538 16.132526 13.582537 6.576285 0 13.127715-5.418103 20.136454-10.213621 1.524773-1.043855 3.797643-1.491221 6.292952-1.491221 3.997715 0 8.568307 1.150726 11.545779 2.844504 5.281408 3.00481 11.799286 9.761284 11.88006 14.970616 0.50453 33.087708-0.647438 66.199027-1.209131 99.302891-0.313156 18.499839-10.111721 29.414334-26.861861 29.414334-2.057885 0-4.222641-0.165277-6.486811-0.500802z m22.234105-41.022246c-3.083099-13.080493-4.261164-22.270143-7.498357-30.671931-1.903792-4.938427-4.768179-7.26846-8.020283-7.268459-2.762487 0-5.804578 1.681352-8.772108 4.87505-8.775835 9.441914-8.742283 20.747855-5.976068 32.450211 1.553355 6.568828 3.474545 13.809949 10.170128 13.809949 1.277479 0 2.728934-0.263449 4.384189-0.846268 6.316564-2.221919 11.160546-8.611801 15.712499-12.348552z m14.280926-212.326257c-18.595526 0-37.217148 0.652409-55.728171 1.568267-25.646516 1.268781-39.801931 18.267457-44.280564 44.109074-3.44472 19.880461-7.19017 39.708729-11.09717 61.19101-23.323939-4.23631-45.234946-10.810109-67.703918-10.810109a104.000237 104.000237 0 0 0-13.675739 0.876092 60.22793 60.22793 0 0 1-0.008698-1.079892c0-6.012106 12.236711-12.025455 16.822215-15.031508l5.974825 9.397178c0.627555-0.234867 1.252626-0.47222 1.886395-0.697146l8.960995-13.209732c0-26.644391 3.996472-23.200913 13.22216-36.04654 7.587829-13.880782 17.728132-26.252945 29.816963-36.520001l-1.753427-2.584783 29.055198-27.058205h7.64375l3.059488-6.012106 9.17598-3.00481h22.937464c6.112763 0-1.473823-6.02329 7.702157-6.02329 4.586747 0 12.219313 2.993626 19.865549 2.993626l-5.329873 8.247694c0.873607 2.57857 7.308225 2.665558 9.183436 4.822858 5.370881 0.602702 8.37072 0.765493 13.529102 1.970897l3.979075-1.491221c6.117734 0 3.060731-4.510943 9.177223-4.510944h7.644992l3.058246 6.014591h9.177223l13.760241 15.02778h7.646236c1.051311 1.035156 4.269863 7.041048 6.676942 10.69454l-0.571635-0.077047c-19.798444-2.000721-39.787018-2.756273-59.80666-2.756273zM421.184549 254.087118c8.309829 0.2038 17.600136-0.345466 15.395614 12.128597-0.55548 25.105948-12.114928 45.656216-25.554557 45.988013l-0.162792 0.002485c-9.976268 0-22.380742-22.359616-22.094924-39.943597 0.191373-11.694901 10.902068-18.201595 30.230777-18.201594 0.715786 0 1.446484 0.008699 2.185882 0.026096z m-20.8336-80.981998c1.460154 0.180189 2.940191 0.24978 4.426441 0.249779 1.860298 0 3.730538-0.108114 5.577166-0.243566a77.298682 77.298682 0 0 1 5.568468-0.217469c17.37521 0 23.530224 7.385272 23.538923 26.8805 0.008699 16.486691-1.543414 21.938346-11.764491 21.938346-3.525495 0-8.084903-0.649924-13.964041-1.718632-25.133287-4.568107-31.338009-10.730578-30.360017-30.915496 0.457308-9.501563 3.990259-16.177262 13.834803-16.177262 0.982963 0 2.030546 0.067105 3.142748 0.2038z" /></svg>